<svg xmlns="http://www.w3.org/2000/svg" width="71" height="76" viewBox="0 0 71 76"><g><g><path fill="orange" d="M69.35 49.444L49.514 38 69.35 26.556a2.334 2.334 0 0 0 .855-3.19l-4.672-8.087a2.337 2.337 0 0 0-3.19-.856L42.506 25.867V2.981A2.335 2.335 0 0 0 40.171.646h-9.344a2.335 2.335 0 0 0-2.336 2.335V25.87L8.657 14.425a2.337 2.337 0 0 0-3.19.855L.793 23.366a2.334 2.334 0 0 0 .855 3.19L21.483 38 1.649 49.444a2.334 2.334 0 0 0-.855 3.19l4.672 8.087a2.338 2.338 0 0 0 3.191.855l19.834-11.443v22.886a2.335 2.335 0 0 0 2.336 2.334h9.344a2.335 2.335 0 0 0 2.336-2.334V50.13l19.834 11.444a2.336 2.336 0 0 0 3.191-.855l4.672-8.088a2.333 2.333 0 0 0-.855-3.188z"/></g></g></svg>