<svg xmlns="http://www.w3.org/2000/svg" width="187" height="74" viewBox="0 0 187 74"><g><g><g><path fill="#101010" d="M46.86 52.29c.534.466 1.107.885 1.712 1.253.525.31 1.194.656 2.053 1.044.113.048.286.125.513.239.824.362 1.367.612 1.63.752.262.137.638.37 1.127.686.411.228.757.56 1.002.96.163.341.245.715.239 1.093a2.518 2.518 0 0 1-.96 2.07 3.897 3.897 0 0 1-2.537.776 10.77 10.77 0 0 1-6.432-2.124v4.415a12.823 12.823 0 0 0 6.468 1.474 8.82 8.82 0 0 0 5.806-1.832 6.057 6.057 0 0 0 2.19-4.917 6.617 6.617 0 0 0-.495-2.62 5.132 5.132 0 0 0-1.51-1.962 12.329 12.329 0 0 0-1.868-1.29 45.784 45.784 0 0 0-2.22-1.073 16.361 16.361 0 0 1-2.93-1.63 2.244 2.244 0 0 1-.984-1.867 2.267 2.267 0 0 1 .907-1.85 3.974 3.974 0 0 1 2.536-.716c1.933-.002 3.829.531 5.478 1.54v-4.177a12.913 12.913 0 0 0-5.615-1.128c-2.387 0-4.31.597-5.77 1.79a5.8 5.8 0 0 0-2.172 4.726 6.355 6.355 0 0 0 .465 2.5c.301.722.77 1.363 1.367 1.868z"/></g><g><path fill="#101010" d="M67.13 64.654h4.344V45.135h5.86v-3.562H61.276v3.562h5.854z"/></g><g><path fill="#101010" d="M86.064 54.897c1.754-5.597 2.735-8.964 2.941-10.102l.138.686c.115.43.417 1.484.907 3.163.489 1.679 1.123 3.751 1.903 6.218l.304 1.026h-6.504zm-1.438 4.518h8.73l1.64 5.239h4.655l-7.805-23.081h-5.58l-7.805 23.08h4.518z"/></g><g><path fill="#101010" d="M103.422 52.29c.534.466 1.107.885 1.712 1.253.667.382 1.352.731 2.053 1.044.114.048.287.125.513.239.824.362 1.367.612 1.63.752.262.137.638.37 1.127.686.403.23.738.561.973.96.167.34.25.714.244 1.093a2.518 2.518 0 0 1-.96 2.07 3.897 3.897 0 0 1-2.536.776 10.77 10.77 0 0 1-6.433-2.124v4.415a12.823 12.823 0 0 0 6.469 1.474 8.82 8.82 0 0 0 5.805-1.832 6.075 6.075 0 0 0 2.208-4.917 6.617 6.617 0 0 0-.495-2.62 5.132 5.132 0 0 0-1.51-1.962 12.329 12.329 0 0 0-1.867-1.29 34.077 34.077 0 0 0-2.226-1.073 16.486 16.486 0 0 1-2.924-1.63 2.244 2.244 0 0 1-.99-1.867 2.267 2.267 0 0 1 .907-1.85 3.974 3.974 0 0 1 2.518-.716c1.933-.002 3.828.531 5.477 1.54v-4.177a12.93 12.93 0 0 0-5.615-1.128c-2.386 0-4.31.597-5.77 1.79a5.8 5.8 0 0 0-2.172 4.726 6.462 6.462 0 0 0 .46 2.5 5.006 5.006 0 0 0 1.402 1.868z"/></g><g><path fill="#101010" d="M135.573 61.127h-11.505l11.057-16.368v-3.186h-16.057v3.526h10.854l-11.027 16.267v3.288h16.678z"/></g><g><path fill="#101010" d="M157.782 64.928c2.554 0 4.543-.457 5.967-1.372v-4.314a8.95 8.95 0 0 1-5.543 1.712 7.375 7.375 0 0 1-5.496-2.124c-1.408-1.428-2.114-3.336-2.118-5.723a7.829 7.829 0 0 1 2.106-5.734 7.077 7.077 0 0 1 5.257-2.142c2.018-.02 4.004.501 5.753 1.51v-4.207c-1.417-.84-3.392-1.261-5.926-1.265-3.469 0-6.305 1.101-8.509 3.305-2.204 2.204-3.304 5.049-3.3 8.533 0 3.58 1.112 6.44 3.336 8.581a11.684 11.684 0 0 0 8.473 3.24z"/></g><g><path fill="#101010" d="M173.225 54.897c1.755-5.597 2.735-8.964 2.942-10.102l.137.686c.116.43.418 1.484.907 3.163.49 1.679 1.124 3.751 1.904 6.218l.304 1.026h-6.504zm-1.438 4.518h8.73l1.641 5.239h4.66l-7.805-23.081h-5.585l-7.805 23.08h4.517z"/></g><g><path fill="#101010" d="M138.956 64.648V41.573h4.117v23.075z"/></g><g><path fill="#101010" d="M17.167 19.763V60.83h-4.463V19.763zM37.26 0H8.58v15.64H0v58.4H30.21v-4.123H4.117V19.763h4.464v45.189h12.704V15.64h-8.581V4.117H33.14V74.04h153.677v-4.123H37.258z"/></g></g></g></svg>