<svg xmlns="http://www.w3.org/2000/svg" width="159" height="43" viewBox="0 0 159 43"><g><g><g><path fill="#fff" d="M19.373 31.508V12.76h-6.276v3.056h3.055v15.692z"/></g><g><path fill="#fff" d="M34.758 31.508v-5.49h2.007v-2.78h-2.007v-6.697h-3.22v6.697h-5.434l.005-10.478h-3.24v13.257h8.669v5.491z"/></g><g><path fill="#fff" d="M46.088 14.336h2.38v1.53c-.634.499-1.222.703-2.021.703-2.304 0-3.124-1.566-3.124-3.032 0-1.973 1.284-3.35 3.124-3.35.828 0 1.735.356 2.311.908l.058.055 1.202-1.23-.057-.057a4.977 4.977 0 0 0-3.514-1.446c-2.489 0-5 1.583-5 5.12 0 2.334 1.313 4.828 5 4.828 1.557 0 2.756-.541 3.77-1.703l.02-.023v-4.033h-4.15z"/></g><g><path fill="#fff" d="M57.488 13.356h-2.444v-2.818h2.444c1.047 0 1.516.707 1.516 1.409 0 .65-.397 1.409-1.516 1.409zm3.432-1.45c0-2.16-1.779-3.154-3.432-3.164-.738 0-1.439-.004-2.14-.007-.7-.003-1.402-.007-2.14-.007h-.08v9.482h1.916V15.1h1.424l2.713 3.111h2.309v-.32l-2.849-3.01c1.45-.349 2.279-1.425 2.279-2.973z"/></g><g><path fill="#fff" d="M69.924 14.167c0 1.58-.8 2.487-2.193 2.487-1.457 0-2.327-.93-2.327-2.487V8.755h-1.902v5.412c0 2.578 1.655 4.243 4.215 4.243 2.535 0 4.11-1.626 4.11-4.243V8.755h-1.903z"/></g><g><path fill="#fff" d="M81.079 14.373l-4.736-5.631h-1.54v9.468h1.915v-6.133l4.99 6.133h1.286V8.728H81.08z"/></g><g><path fill="#fff" d="M94.542 14.887l-2.089-6.091-.019-.054h-1.18l-2.048 6.145-1.988-6.145h-2.004l3.22 9.414.02.054h1.5l1.075-2.955.828-2.717.841 2.694 1.098 2.978h1.501l3.141-9.363.036-.105H96.47z"/></g><g><path fill="#fff" d="M112.35 8.742h-1.915v9.468h6.318v-1.783h-4.403z"/></g><g><path fill="#fff" d="M124.99 15.589c-.5.512-1.193.772-2.061.772h-1.834v-5.797h1.834c1.331 0 2.775.741 2.832 2.82.023.887-.25 1.67-.772 2.205zm-2.061-6.847h-3.737v9.468h3.737c1.408 0 2.595-.45 3.433-1.303.85-.865 1.324-2.145 1.301-3.512-.037-2.147-1.3-4.653-4.734-4.653z"/></g><g><path fill="#fff" d="M129.943 10.55h4.526l-4.63 6.523-.016.02v1.117h7.434v-1.822H132.6l4.644-6.58.014-.02V8.74h-7.314z"/></g><g><path fill="#fff" d="M147.913 9.046l.006-.304h-2.297l-3.423 3.602V8.742h-1.915v9.468h1.915v-3.773l3.783 3.773h2.281v-.318l-4.46-4.563z"/></g><g><path fill="#fff" d="M152.79 14.659l1.42-3.66 1.421 3.66zm2.37-5.917h-1.909l-3.735 9.358-.044.11h1.918l.709-1.755h4.222l.698 1.755h1.92z"/></g><g><path fill="#fff" d="M102.074 14.659l1.421-3.66 1.421 3.66zm.462-5.917L98.8 18.1l-.044.11h1.917l.71-1.755h4.222l.698 1.755h1.92l-3.778-9.468z"/></g><g><path fill="#fff" d="M42.074 39.48H3.53L9.264 3.739h35.699V.85H6.802L.141 42.368h44.822v-19.13h-2.889z"/></g></g></g></svg>