<svg xmlns="http://www.w3.org/2000/svg" width="105" height="42" viewBox="0 0 105 42"><g><g><g><path fill="#fff" d="M26.856 29.174c.344.292.662.525.955.696.293.172.674.366 1.145.582.064.026.16.07.286.134.459.204.76.344.907.42.146.076.356.204.63.382.273.178.455.356.544.534.089.178.134.382.134.61 0 .485-.179.87-.535 1.156-.356.286-.827.43-1.412.43-1.298 0-2.495-.395-3.589-1.184v2.462c.955.547 2.157.82 3.608.82 1.336 0 2.414-.34 3.235-1.02.82-.681 1.231-1.594 1.231-2.74 0-.546-.092-1.033-.277-1.46a2.875 2.875 0 0 0-.84-1.097 6.867 6.867 0 0 0-1.04-.716 20.007 20.007 0 0 0-1.24-.601c-.726-.33-1.27-.633-1.632-.907-.363-.273-.544-.62-.544-1.04 0-.42.168-.764.505-1.03.337-.268.805-.401 1.404-.401 1.08 0 2.099.286 3.053.858v-2.328c-.878-.42-1.921-.63-3.13-.63-1.336 0-2.408.33-3.216.992-.808.662-1.212 1.54-1.212 2.634 0 .522.086.987.258 1.394.171.407.43.757.772 1.05z"/></g><g><path fill="#fff" d="M38.156 36.064h2.424v-10.88h3.264V23.2h-8.952v1.985h3.264z"/></g><g><path fill="#fff" d="M48.71 30.624c.98-3.117 1.528-4.994 1.642-5.63l.077.381c.063.242.232.83.506 1.766.273.935.626 2.09 1.059 3.464l.172.573h-3.627zm-.8 2.52h4.866l.917 2.92h2.596L51.937 23.2h-3.111l-4.352 12.865h2.519z"/></g><g><path fill="#fff" d="M58.388 29.174c.344.292.662.525.954.696.293.172.675.366 1.146.582.063.026.159.07.286.134.458.204.76.344.906.42.146.076.357.204.63.382.274.178.455.356.544.534.09.178.134.382.134.61 0 .485-.179.87-.534 1.156-.357.286-.828.43-1.413.43-1.298 0-2.494-.395-3.588-1.184v2.462c.954.547 2.157.82 3.607.82 1.336 0 2.415-.34 3.235-1.02.821-.681 1.232-1.594 1.232-2.74 0-.546-.093-1.033-.277-1.46a2.872 2.872 0 0 0-.84-1.097 6.86 6.86 0 0 0-1.04-.716 19.99 19.99 0 0 0-1.24-.601c-.726-.33-1.27-.633-1.633-.907-.363-.273-.544-.62-.544-1.04 0-.42.169-.764.506-1.03.337-.268.805-.401 1.403-.401 1.081 0 2.1.286 3.054.858v-2.328c-.878-.42-1.922-.63-3.13-.63-1.337 0-2.409.33-3.217.992-.808.662-1.212 1.54-1.212 2.634 0 .522.086.987.258 1.394.172.407.43.757.773 1.05z"/></g><g><path fill="#fff" d="M76.31 34.098h-6.413l6.165-9.124V23.2h-8.951v1.966h6.05l-6.146 9.067v1.832h9.296z"/></g><g><path fill="#fff" d="M88.693 36.217c1.425 0 2.532-.255 3.321-.764v-2.405c-.852.637-1.883.955-3.092.955-1.26 0-2.28-.395-3.063-1.184-.783-.788-1.174-1.851-1.174-3.187 0-1.336.391-2.402 1.174-3.197.782-.795 1.759-1.193 2.93-1.193 1.17 0 2.24.28 3.206.84v-2.348c-.789-.47-1.89-.706-3.302-.706-1.934 0-3.515.613-4.743 1.842-1.228 1.228-1.841 2.815-1.841 4.762 0 1.985.62 3.578 1.86 4.78 1.24 1.203 2.815 1.805 4.724 1.805z"/></g><g><path fill="#fff" d="M97.302 30.624c.98-3.117 1.526-4.994 1.64-5.63l.077.381c.064.242.232.83.506 1.766.274.935.627 2.09 1.06 3.464l.171.573H97.13zm-.802 2.52h4.867l.916 2.92h2.596L100.527 23.2h-3.111l-4.352 12.865h2.52z"/></g><g><path fill="#fff" d="M78.197 36.064V23.199h2.296v12.865z"/></g><g><path fill="#fff" d="M10.302 11.039v22.894H7.815V11.04zM21.505.022H5.518v8.72H.734v32.554h16.84v-2.297H3.03V11.04h2.488v25.19H12.6V8.743H7.815V2.319h11.394v38.977h85.67v-2.297H21.505z"/></g></g></g></svg>