<svg xmlns="http://www.w3.org/2000/svg" width="355" height="94" viewBox="0 0 355 94"><g><g><g><path fill="#fff" d="M43.582 69.045V27.293H29.605v6.804h6.804v34.948z"/></g><g><path fill="#fff" d="M77.846 69.045V56.817h4.469v-6.19h-4.469V35.714h-7.173v14.915h-12.1l.01-23.335H51.37v29.524h19.303v12.228z"/></g><g><path fill="#fff" d="M103.077 30.801h5.3v3.408c-1.411 1.11-2.721 1.565-4.5 1.565-5.13 0-6.958-3.487-6.958-6.75 0-4.394 2.861-7.463 6.958-7.463 1.844 0 3.864.795 5.148 2.024l.128.122 2.676-2.741-.127-.125a11.084 11.084 0 0 0-7.825-3.22c-5.543 0-11.136 3.525-11.136 11.403 0 5.197 2.926 10.75 11.136 10.75 3.469 0 6.137-1.204 8.397-3.792l.044-.05v-8.983h-9.241z"/></g><g><path fill="#fff" d="M128.467 28.619h-5.444v-6.276h5.444c2.331 0 3.374 1.576 3.374 3.138 0 1.448-.883 3.138-3.374 3.138zm7.642-3.227c0-4.811-3.961-7.027-7.642-7.049-1.644 0-3.205-.008-4.766-.015-1.56-.007-3.123-.015-4.767-.015h-.179V39.43h4.268V32.5h3.17l6.042 6.93h5.144v-.715l-6.344-6.702c3.23-.777 5.074-3.174 5.074-6.622z"/></g><g><path fill="#fff" d="M156.163 30.427c0 3.519-1.781 5.536-4.885 5.536-3.245 0-5.182-2.069-5.182-5.536V18.373h-4.237v12.054c0 5.74 3.685 9.447 9.388 9.447 5.646 0 9.153-3.62 9.153-9.447V18.373h-4.237z"/></g><g><path fill="#fff" d="M181.004 30.884l-10.548-12.541h-3.43V39.43h4.266V25.77l11.111 13.66h2.868V18.313h-4.267z"/></g><g><path fill="#fff" d="M210.988 32.03l-4.653-13.566-.041-.121h-2.63l-4.56 13.687-4.427-13.687h-4.464l7.173 20.967.041.12h3.344l2.392-6.582 1.845-6.05 1.874 6 2.444 6.633h3.343l6.996-20.852.08-.236h-4.465z"/></g><g><path fill="#fff" d="M250.647 18.343h-4.266V39.43h14.073V35.46h-9.807z"/></g><g><path fill="#fff" d="M278.795 33.591c-1.112 1.142-2.656 1.721-4.588 1.721h-4.085v-12.91h4.085c2.965 0 6.18 1.65 6.307 6.282.052 1.973-.558 3.716-1.719 4.907zm-4.588-15.248h-8.323v21.088h8.323c3.135 0 5.778-1.004 7.645-2.903 1.894-1.926 2.95-4.777 2.898-7.822-.082-4.78-2.893-10.363-10.543-10.363z"/></g><g><path fill="#fff" d="M289.827 22.372h10.08l-10.313 14.526-.033.046v2.487h16.556v-4.06h-10.374l10.342-14.653.032-.047v-2.328h-16.29z"/></g><g><path fill="#fff" d="M329.849 19.02l.012-.677h-5.116l-7.622 8.024v-8.024h-4.266V39.43h4.266v-8.404l8.424 8.404h5.08v-.709l-9.931-10.162z"/></g><g><path fill="#fff" d="M340.708 31.52l3.164-8.152 3.165 8.153zm5.28-13.177h-4.252l-8.32 20.842-.096.246h4.27l1.58-3.91h9.402l1.555 3.91h4.277z"/></g><g><path fill="#fff" d="M227.762 31.52l3.165-8.152 3.164 8.153zm1.028-13.177l-8.318 20.842-.097.246h4.27l1.58-3.91h9.403l1.554 3.91h4.277l-8.416-21.088z"/></g><g><path fill="#fff" d="M94.14 86.798H8.296l12.77-79.596h79.504V.769H15.585L.75 93.231h99.821V50.628H94.14z"/></g></g></g></svg>