<svg xmlns="http://www.w3.org/2000/svg" width="40" height="34" viewBox="0 0 40 34"><g><g><path fill="orange" d="M1.953 31.816v-1.482h36.024v1.482zM3.396 14.27h1.871v14.504H3.396zm3.43 0h1.989v14.504H6.826zm3.548 0h1.877v14.504h-1.877zm5.342 0v14.504H13.81V14.27zm3.43 0v14.504h-1.87V14.27zm-5.336-1.56v-6.94h5.337v6.94zm8.845 1.56v14.504h-1.949V14.27zm3.465 0v14.504h-1.905V14.27zm-5.414-1.56v-6.94h5.414v6.94zm8.85 1.56v14.504H27.68V14.27zM10.374 2.185h19.182v10.527H27.68v-7.72a.78.78 0 0 0-.78-.78H13.03a.78.78 0 0 0-.78.78v7.72h-1.876zm20.742 12.086h1.91v14.504h-1.91zm7.641 14.504h-4.171V14.27h1.949v9.67a.78.78 0 0 0 1.56 0v-9.67h.662a.78.78 0 0 0 0-1.56h-7.641V1.406a.78.78 0 0 0-.78-.78H9.595a.78.78 0 0 0-.78.78v11.307H1.173a.78.78 0 0 0 0 1.56h.663v14.502h-.663a.78.78 0 0 0-.78.78v3.041c0 .43.35.78.78.78h37.584c.43 0 .78-.35.78-.78v-3.04a.78.78 0 0 0-.78-.78z"/></g></g></svg>