<svg xmlns="http://www.w3.org/2000/svg" width="35" height="39" viewBox="0 0 35 39"><g><g><g><path fill="orange" d="M9.145 2.11c0-.533.434-.967.968-.967h7.694c.534 0 .968.434.968.967v2.507h-9.63zm5.386 8.574h9.938v27.173H14.53zM3.451 8.068h21.018V9.54H3.45zm23.898-3.451h-7.432V2.11c0-1.163-.946-2.11-2.11-2.11h-7.694c-1.164 0-2.11.947-2.11 2.11v2.507H.57a.571.571 0 0 0-.57.571v33.24c0 .316.255.572.57.572H27.35a.571.571 0 0 0 .57-.571v-25.36a.571.571 0 1 0-1.142 0v24.788h-1.166V7.497a.571.571 0 0 0-.57-.572H2.88a.571.571 0 0 0-.572.571v11.287a.571.571 0 1 0 1.143 0v-8.1h9.938v27.174H3.45V21.452a.571.571 0 1 0-1.143 0v16.405H1.143V5.76h25.634v4.645a.571.571 0 1 0 1.143 0V5.188a.571.571 0 0 0-.571-.571z"/></g><g><path fill="orange" d="M16.73 2.308h-1.385a.571.571 0 1 0 0 1.143h1.385a.571.571 0 1 0 0-1.143z"/></g><g><path fill="orange" d="M12.575 2.308H11.19a.571.571 0 1 0 0 1.143h1.385a.571.571 0 1 0 0-1.143z"/></g><g><path fill="orange" d="M31.657 15.07l1.3 2.166h-2.599zm-2.308 3.308h4.617a.571.571 0 0 0 .49-.865l-2.309-3.847a.571.571 0 0 0-.98 0l-2.308 3.847a.571.571 0 0 0 .49.865z"/></g><g><path fill="orange" d="M31.657 23.93l-1.299-2.166h2.599zm2.309-3.308h-4.617a.571.571 0 0 0-.49.865l2.309 3.847a.571.571 0 0 0 .98 0l2.308-3.847a.571.571 0 0 0-.49-.865z"/></g></g></g></svg>