<svg xmlns="http://www.w3.org/2000/svg" width="186" height="70" viewBox="0 0 186 70"><g><g><g><g><path fill="#040405" d="M45.367 68.481v-3.996h1.977c1.014 0 1.839.891 1.839 1.987 0 1.089-.805 1.971-1.831 2.01zm1.817-5.266h-3.086v6.536h3.086a3.276 3.276 0 0 0 3.268-3.279c0-1.917-1.343-3.257-3.268-3.257z"/></g><g><path fill="#040405" d="M54.991 67.033h2.804v-1.089H54.99v-1.63h3.55v-1.099h-4.82v6.536h4.82v-1.088h-3.55z"/></g><g><path fill="#040405" d="M61.891 63.215l2.806 6.536H66.1l2.795-6.536h-1.472l-2.025 4.82-2.036-4.82z"/></g><g><path fill="#040405" d="M73.516 67.033h2.803v-1.089h-2.803v-1.63h3.55v-1.099h-4.82v6.536h4.82v-1.088h-3.55z"/></g><g><path fill="#040405" d="M82.778 63.215h-1.27v6.536h4.82v-1.1h-3.55z"/></g><g><path fill="#040405" d="M92.645 68.738a2.252 2.252 0 0 1-2.255-2.244 2.257 2.257 0 0 1 2.255-2.254 2.251 2.251 0 0 1 2.243 2.254 2.247 2.247 0 0 1-2.243 2.244zm0-5.704a3.464 3.464 0 0 0-3.46 3.46 3.459 3.459 0 0 0 3.46 3.449 3.453 3.453 0 0 0 3.449-3.45 3.458 3.458 0 0 0-3.449-3.46z"/></g><g><path fill="#040405" d="M102.078 66.978h-1.605v-2.462h1.626a1.232 1.232 0 0 1-.021 2.462zm.266-3.763h-3.172v6.536h1.301V68.28h1.626a2.54 2.54 0 0 0 2.533-2.385v-.307c-.064-1.145-.888-2.373-2.288-2.373z"/></g><g><path fill="#040405" d="M109.055 63.215h-1.34v6.536h1.28v-4.216l1.922 4.216h.473l1.954-4.24v4.24h1.27v-6.536h-1.346l-2.116 4.252z"/></g><g><path fill="#040405" d="M119.438 67.033h2.804v-1.089h-2.804v-1.63h3.55v-1.099h-4.82v6.536h4.82v-1.088h-3.55z"/></g><g><path fill="#040405" d="M126.495 63.215v6.536h1.27v-4.493l3.743 4.493h1.374v-6.536h-1.27v4.681l-3.745-4.681z"/></g><g><path fill="#040405" d="M138.316 69.751h1.27v-5.437h2.633v-1.099h-6.536v1.1h2.633z"/></g></g><g><g><path fill="#100f38" d="M7.47 15.614v5.9h11.088v6.156H7.47v9.105H.5v-27.4h21.05v6.24z"/></g><g><path fill="#100f38" d="M86.883 31.695h-.041c-2.614 3.541-6.829 5.818-11.592 5.818-7.968 0-14.46-6.45-14.46-14.417s6.492-14.46 14.46-14.46c4.763 0 8.64 1.982 11.296 5.565l-5.016 3.204c-1.686-1.56-3.541-2.445-6.28-2.445-4.47 0-8.137 3.668-8.137 8.136 0 4.468 3.668 8.093 8.137 8.093a8.14 8.14 0 0 0 5.859-2.487v-2.866h-6.87v-5.27h12.644z"/></g><g><g><path fill="orange" d="M45.662 36.821h-8.914V9.396h8.914zM28.078.761v44.698h26.185V.76z"/></g></g><g><path fill="#100f38" d="M120.994 9.375v13.457c0 8.817-6.16 14.68-13.921 14.68-7.805 0-13.964-5.863-13.964-14.68V9.375h6.976v13.457c0 4.303 2.747 7.527 6.966 7.527 4.177 0 6.968-3.224 6.968-7.527V9.375z"/></g><g><path fill="#100f38" d="M134.495 23.618V14.88h5.29c3.016 0 4.779 1.45 4.779 4.31 0 2.899-1.763 4.427-4.78 4.427zm9.56 13.203h7.914l-5.76-9.05c3.213-1.606 4.976-4.623 4.976-8.816 0-6.111-4.153-9.56-11.4-9.56H127.52v27.426h6.974v-7.718h5.485z"/></g><g><path fill="#100f38" d="M174.377 26.478h-7.915l3.996-9.637zm2.037 5.485l1.958 4.858h7.444L174.26 9.396h-7.17L155.256 36.82h7.17l1.998-4.858z"/></g></g></g></g></svg>