<svg xmlns="http://www.w3.org/2000/svg" width="314" height="124" viewBox="0 0 314 124"><g><g><g><path fill="#fff" d="M78.53 87.63a20.81 20.81 0 0 0 2.87 2.1c.88.52 2 1.1 3.44 1.75.19.08.48.21.86.4 1.38.607 2.29 1.027 2.73 1.26.44.23 1.07.62 1.89 1.15A4.57 4.57 0 0 1 92 95.9a4.11 4.11 0 0 1 .4 1.83 4.22 4.22 0 0 1-1.61 3.47 6.53 6.53 0 0 1-4.25 1.3 18.05 18.05 0 0 1-10.78-3.56v7.4a21.49 21.49 0 0 0 10.84 2.47 14.78 14.78 0 0 0 9.73-3.07A10.15 10.15 0 0 0 100 97.5a11.09 11.09 0 0 0-.83-4.39 8.6 8.6 0 0 0-2.53-3.29 20.662 20.662 0 0 0-3.13-2.16c-1-.51-2.2-1.12-3.72-1.8a27.42 27.42 0 0 1-4.91-2.73A3.76 3.76 0 0 1 83.23 80a3.8 3.8 0 0 1 1.52-3.1A6.66 6.66 0 0 1 89 75.7a17.56 17.56 0 0 1 9.18 2.58v-7a21.64 21.64 0 0 0-9.41-1.89c-4 0-7.223 1-9.67 3a9.72 9.72 0 0 0-3.64 7.92 10.65 10.65 0 0 0 .78 4.19 8.26 8.26 0 0 0 2.29 3.13z"/></g><g><path fill="#fff" d="M112.5 108.35h7.28V75.64h9.82v-5.97h-26.91v5.97h9.81z"/></g><g><path fill="#fff" d="M144.23 92c2.94-9.38 4.583-15.023 4.93-16.93l.23 1.15c.193.72.7 2.487 1.52 5.3.82 2.813 1.883 6.287 3.19 10.42l.51 1.72h-10.9zm-2.41 7.57h14.63l2.75 8.78h7.8l-13.08-38.68h-9.35l-13.08 38.68h7.57z"/></g><g><path fill="#fff" d="M173.32 87.63c.895.78 1.855 1.483 2.87 2.1a38.097 38.097 0 0 0 3.44 1.75c.19.08.48.21.86.4 1.38.607 2.29 1.027 2.73 1.26.44.23 1.07.62 1.89 1.15a4.45 4.45 0 0 1 1.63 1.61 4 4 0 0 1 .41 1.83 4.22 4.22 0 0 1-1.61 3.47 6.53 6.53 0 0 1-4.25 1.3 18.05 18.05 0 0 1-10.78-3.56v7.4a21.49 21.49 0 0 0 10.84 2.47 14.78 14.78 0 0 0 9.73-3.07 10.18 10.18 0 0 0 3.7-8.24 11.09 11.09 0 0 0-.83-4.39 8.6 8.6 0 0 0-2.53-3.29 20.66 20.66 0 0 0-3.13-2.16c-.95-.51-2.2-1.12-3.73-1.8a27.629 27.629 0 0 1-4.9-2.73A3.76 3.76 0 0 1 178 80a3.8 3.8 0 0 1 1.52-3.1 6.66 6.66 0 0 1 4.22-1.2 17.56 17.56 0 0 1 9.18 2.58v-7a21.67 21.67 0 0 0-9.41-1.89c-4 0-7.223 1-9.67 3a9.72 9.72 0 0 0-3.64 7.92 10.83 10.83 0 0 0 .77 4.19 8.39 8.39 0 0 0 2.35 3.13z"/></g><g><path fill="#fff" d="M227.2 102.44h-19.28l18.53-27.43v-5.34h-26.91v5.91h18.19l-18.48 27.26v5.51h27.95z"/></g><g><path fill="#fff" d="M264.42 108.81c4.28 0 7.613-.767 10-2.3v-7.23a15 15 0 0 1-9.29 2.87 12.36 12.36 0 0 1-9.21-3.56c-2.36-2.393-3.543-5.59-3.55-9.59a13.12 13.12 0 0 1 3.53-9.61 11.86 11.86 0 0 1 8.81-3.59 18.93 18.93 0 0 1 9.64 2.53v-7.05c-2.373-1.407-5.683-2.113-9.93-2.12-5.813 0-10.567 1.847-14.26 5.54-3.693 3.693-5.537 8.46-5.53 14.3 0 6 1.863 10.793 5.59 14.38a19.58 19.58 0 0 0 14.2 5.43z"/></g><g><path fill="#fff" d="M290.3 92c2.94-9.38 4.583-15.023 4.93-16.93l.23 1.15c.193.72.7 2.487 1.52 5.3.82 2.813 1.883 6.287 3.19 10.42l.51 1.72h-10.9zm-2.41 7.57h14.63l2.75 8.78h7.81L300 69.67h-9.36l-13.08 38.68h7.57z"/></g><g><path fill="#fff" d="M232.87 108.34V69.67h6.9v38.67z"/></g><g><path fill="#fff" d="M28.77 33.12v68.82h-7.48V33.12zM62.44 0H14.38v26.21H0v97.87h50.63v-6.91H6.9V33.12h7.48v75.73h21.29V26.21H21.29V6.9h34.25v117.18h257.54v-6.91H62.44z"/></g></g></g></svg>