<svg xmlns="http://www.w3.org/2000/svg" width="40" height="40" viewBox="0 0 40 40"><g><g><g><g><g><path fill="orange" d="M39.327 3.714A.673.673 0 0 0 40 3.04V.923a.673.673 0 0 0-.673-.673H8.881a.673.673 0 0 0-.673.673v30.446c0 .372.301.673.673.673h30.446a.673.673 0 0 0 .673-.673V5.284a.673.673 0 1 0-1.346 0V16.81h-2.672a.673.673 0 1 0 0 1.345h2.672v12.54H19.431v-3.255a.673.673 0 0 0-1.345 0v3.255H9.553v-29.1h8.533v21a.673.673 0 0 0 1.346 0v-4.44h11.975a.673.673 0 1 0 0-1.345H19.431V1.596h19.223V3.04c0 .371.301.673.673.673z"/></g></g></g><g><g><g><path fill="orange" d="M2.384 3.816l1.009-1.62L4.4 3.816zm3.8.317L3.964.567a.673.673 0 0 0-1.142 0L.602 4.133a.673.673 0 0 0 .57 1.028H2.72v2.814a.673.673 0 0 0 1.346 0V5.16h1.547a.673.673 0 0 0 .571-1.028z"/></g></g></g><g><g><g><path fill="orange" d="M3.393 30.096l-1.009-1.62h2.017zm2.808-2.62a.673.673 0 0 0-.588-.345H4.065V9.769a.673.673 0 0 0-1.345 0V27.13H1.173A.673.673 0 0 0 .6 28.159l2.22 3.566a.673.673 0 0 0 1.143 0l2.22-3.566a.672.672 0 0 0 .017-.682z"/></g></g></g><g><g><g><path fill="orange" d="M36.434 37.866v-2.017l1.62 1.008zm-24.66 0l-1.62-1.009 1.62-1.008zm27.909-1.58l-3.566-2.22a.673.673 0 0 0-1.028.571v1.547h-21.97v-1.547a.673.673 0 0 0-1.028-.571l-3.566 2.22a.673.673 0 0 0 0 1.142l3.566 2.22a.672.672 0 0 0 1.028-.57V37.53h21.97v1.547a.673.673 0 0 0 1.028.571l3.566-2.22a.673.673 0 0 0 0-1.142z"/></g></g></g></g></g></svg>