<svg xmlns="http://www.w3.org/2000/svg" width="40" height="40" viewBox="0 0 40 40"><g><g><g><path fill="orange" d="M15.96 34.224a.66.66 0 0 1-.657.658H2.316a.66.66 0 0 1-.658-.658v-4.948a.66.66 0 0 1 1.316 0v3.093a1.197 1.197 0 0 0 1.197 1.197h9.277a1.198 1.198 0 0 0 1.197-1.197v-3.093a.659.659 0 0 1 1.316 0zm-1.477 4.369l-.851-2.554h1.092v2.554zm-11.347 0h-.241v-2.554h1.092zm9.693-18.014c1.045 0 1.895.85 1.895 1.895v5.082a1.818 1.818 0 0 0-1.237 1.72v.659h-.658a.579.579 0 1 0 0 1.157h.658v1.277a.04.04 0 0 1-.04.04H4.172a.04.04 0 0 1-.04-.04v-1.277h6.224a.579.579 0 1 0 0-1.157H4.131v-.659c0-.798-.519-1.478-1.236-1.72v-5.082c0-1.045.85-1.895 1.895-1.895zm3.052 6.977v-5.082a3.056 3.056 0 0 0-3.052-3.052H4.79a3.055 3.055 0 0 0-3.052 3.052v5.082A1.818 1.818 0 0 0 .5 29.276v4.948c0 .799.52 1.478 1.237 1.72v3.227c0 .32.26.579.579.579h1.237c.249 0 .47-.16.549-.396l1.105-3.314h7.205l1.105 3.314c.079.237.3.396.549.396h1.237c.32 0 .578-.259.578-.579v-3.227a1.818 1.818 0 0 0 1.237-1.72v-4.948c0-.798-.519-1.478-1.237-1.72z"/></g><g><path fill="orange" d="M37.827 12.619h-7.325l-.658-1.317h8.641zm-10.513 0H13.187l-.659-1.317H24.58a.579.579 0 0 0 0-1.157H3.462L20.25 1.48l16.789 8.665h-9.986a.579.579 0 0 0 0 1.157h.919zm-17.316 0H2.673l-.658-1.317h8.641zm10.91 25.974h-1.316v-1.895a.659.659 0 0 1 1.316 0zM39.687 10.21L20.515.315a.579.579 0 0 0-.53 0L.814 10.21a.578.578 0 0 0-.252.772l1.236 2.474a.58.58 0 0 0 .518.32h8.04c.218 0 .419-.124.517-.32l.72-1.438.719 1.438c.097.196.298.32.517.32h6.843v21.201a1.818 1.818 0 0 0-1.237 1.72v1.896h-.659a.579.579 0 0 0 0 1.157h4.948a.579.579 0 1 0 0-1.157h-.658v-1.895c0-.8-.52-1.478-1.237-1.72V13.775h6.842c.22 0 .42-.124.518-.32l.719-1.438.72 1.438c.097.196.298.32.517.32h8.04c.218 0 .419-.124.517-.32l1.237-2.474a.578.578 0 0 0-.252-.772z"/></g><g><path fill="orange" d="M30.257 38.558a.04.04 0 0 1-.04.035H27.6a.04.04 0 0 1-.04-.035l-.47-3.756h3.637zm-1.35-19.755a5.532 5.532 0 0 0-5.525 5.526c0 1.967 1.059 3.8 2.762 4.786a.579.579 0 0 0 .58-1.001 4.386 4.386 0 0 1-2.185-3.785 4.374 4.374 0 0 1 4.37-4.369 4.374 4.374 0 0 1 4.368 4.369 4.374 4.374 0 0 1-3.79 4.33v-.998l1.067-1.068a.579.579 0 0 0-.818-.818l-.25.25v-1.078a.579.579 0 0 0-1.156 0v8.698h-1.895a.58.58 0 0 0-.575.65l.551 4.406A1.199 1.199 0 0 0 27.6 39.75h2.619c.602 0 1.113-.451 1.187-1.049l.551-4.405a.578.578 0 0 0-.574-.65h-1.895v-3.821a5.534 5.534 0 0 0 4.947-5.496 5.532 5.532 0 0 0-5.526-5.526z"/></g><g><path fill="orange" d="M6.026 24.908h5.566a.578.578 0 1 0 0-1.158H6.026a.579.579 0 0 0 0 1.158z"/></g></g></g></svg>