<svg id="Capa_1" enable-background="new 0 0 512 512" height="512" viewBox="0 0 512 512" width="512" xmlns="http://www.w3.org/2000/svg" fill="#ffa500"><g><path d="m507.608 46.819-42.426-42.427c-5.853-5.854-15.356-5.858-21.213 0-6.492 6.492-54.047 54.047-61.587 61.587-5.5 0-358.567 0-367.382 0-8.284 0-15 6.716-15 15v416.021c0 8.284 6.716 15 15 15h208.01c8.284 0 15-6.716 15-15v-71.08h37.348c8.851 28.076 33.52 49.105 62.968 53.075.68.092 1.355.137 2.023.137 7.393-.001 13.831-5.468 14.846-12.997 1.107-8.21-4.651-15.764-12.861-16.87-19.063-2.57-34.838-16.876-39.255-35.599l-1.461-6.191c-1.598-6.771-7.642-11.555-14.599-11.555h-49.01c0-4.275 0-174.239 0-175.94 0-8.284-6.716-15-15-15s-15 6.716-15 15v54.01h-54.01c-8.284 0-15 6.716-15 15s6.716 15 15 15h54.01v106.93 71.08h-178.009v-178.01h54c8.284 0 15-6.716 15-15s-6.716-15-15-15h-54v-78.705h84.305c8.284 0 15-6.716 15-15v-84.306h78.705v54c0 8.284 6.716 15 15 15s15-6.716 15-15v-54h114.371l-61.537 61.536c-1.533 1.533-2.728 3.445-3.438 5.337l-25.611 68.261c-4.516 12.039 7.312 23.868 19.369 19.293l68.038-25.834c1.906-.724 3.894-2.03 5.282-3.417l61.537-61.537v236.302h-49c-8.284 0-15 6.716-15 15s6.716 15 15 15h64c8.284 0 15-6.716 15-15v-281.302c7.471-7.471 54.116-54.115 61.587-61.586 5.854-5.853 5.858-15.357 0-21.213zm-408.302 118.465h-69.306v-69.305h69.305v69.305zm312.842-86.646 21.213 21.213c-5.076 5.077-79.617 79.618-82.115 82.116-5.073-8.804-12.41-16.142-21.214-21.214 2.554-2.553 76.807-76.806 82.116-82.115zm-100.974 106.27c7.328 2.788 13.16 8.628 15.935 15.962l-25.567 9.708zm143.401-106.27-21.213-21.213 21.213-21.214 21.213 21.214z"/><circle cx="75" cy="437" r="15"/><circle cx="371.021" cy="350.919" r="15"/></g></svg>