<svg xmlns="http://www.w3.org/2000/svg" width="242" height="64" viewBox="0 0 242 64"><g><g><g><path fill="#fff" d="M29.293 47.267v-28.57H19.73v4.656h4.655v23.914z"/></g><g><path fill="#fff" d="M52.74 47.267V38.9h3.058v-4.235H52.74V24.459h-4.908v10.206h-8.28l.007-15.968h-4.937V38.9h13.21v8.367z"/></g><g><path fill="#fff" d="M70.005 21.098h3.627v2.331c-.966.76-1.862 1.072-3.08 1.072-3.51 0-4.76-2.387-4.76-4.62 0-3.006 1.957-5.106 4.76-5.106 1.262 0 2.645.544 3.523 1.385l.087.083 1.832-1.876-.087-.085a7.584 7.584 0 0 0-5.355-2.203c-3.793 0-7.62 2.412-7.62 7.802 0 3.557 2.002 7.357 7.62 7.357 2.374 0 4.2-.824 5.746-2.595l.03-.035v-6.146h-6.323z"/></g><g><path fill="#fff" d="M87.379 19.604h-3.725V15.31h3.725c1.595 0 2.309 1.078 2.309 2.147 0 .99-.605 2.147-2.31 2.147zm5.229-2.208c0-3.292-2.71-4.808-5.23-4.823-1.124 0-2.192-.005-3.26-.01-1.068-.005-2.137-.01-3.262-.01h-.122v14.45h2.92V22.26h2.17l4.134 4.742h3.52v-.49l-4.342-4.585c2.21-.532 3.472-2.173 3.472-4.532z"/></g><g><path fill="#fff" d="M106.33 20.841c0 2.408-1.218 3.79-3.342 3.79-2.22 0-3.546-1.417-3.546-3.79v-8.248h-2.9v8.248c0 3.928 2.523 6.465 6.425 6.465 3.864 0 6.263-2.477 6.263-6.465v-8.248h-2.9z"/></g><g><path fill="#fff" d="M123.33 21.155l-7.218-8.582h-2.348v14.43h2.92v-9.347l7.603 9.347h1.962v-14.45h-2.92z"/></g><g><path fill="#fff" d="M143.847 21.938l-3.184-9.283-.028-.082h-1.8l-3.12 9.365-3.03-9.365h-3.054l4.908 14.347.029.083h2.287l1.637-4.505 1.263-4.14 1.282 4.106 1.672 4.539h2.288l4.787-14.269.055-.161h-3.055z"/></g><g><path fill="#fff" d="M170.985 12.573h-2.92v14.43h9.63v-2.718h-6.71z"/></g><g><path fill="#fff" d="M190.246 23.007c-.76.781-1.817 1.178-3.14 1.178h-2.795V15.35h2.795c2.03 0 4.23 1.13 4.316 4.299.036 1.35-.382 2.543-1.176 3.358zm-3.14-10.434h-5.695v14.43h5.695c2.146 0 3.955-.687 5.232-1.986 1.296-1.318 2.019-3.27 1.983-5.353-.056-3.271-1.98-7.091-7.215-7.091z"/></g><g><path fill="#fff" d="M197.795 15.33h6.898l-7.057 9.94-.023.031v1.702h11.33v-2.778h-7.1l7.077-10.027.022-.032v-1.593h-11.147z"/></g><g><path fill="#fff" d="M225.182 13.036l.008-.463h-3.501l-5.215 5.49v-5.49h-2.92v14.43h2.92v-5.751l5.764 5.75h3.476v-.484l-6.796-6.954z"/></g><g><path fill="#fff" d="M232.612 21.59l2.165-5.578 2.166 5.578zm3.614-9.017h-2.91l-5.693 14.262-.066.168h2.922l1.08-2.675h6.435l1.063 2.675h2.927z"/></g><g><path fill="#fff" d="M155.325 21.59l2.166-5.578 2.165 5.578zm.704-9.017l-5.692 14.262-.067.168h2.922l1.082-2.675h6.433l1.064 2.675h2.927l-5.759-14.43z"/></g><g><path fill="#fff" d="M63.889 59.416H5.149l8.738-54.467h54.404V.547H10.136L-.016 63.817h68.307V34.665h-4.402z"/></g></g></g></svg>