<svg xmlns="http://www.w3.org/2000/svg" width="157" height="63" viewBox="0 0 157 63"><g><g><g><path fill="#fff" d="M39.265 44.592c.448.39.928.742 1.435 1.05.44.26 1 .55 1.72.875.095.04.24.105.43.2.69.304 1.145.514 1.365.63.22.115.535.31.945.575.345.192.634.469.84.805.136.286.205.599.2.915a2.11 2.11 0 0 1-.805 1.735 3.265 3.265 0 0 1-2.125.65 9.025 9.025 0 0 1-5.39-1.78v3.7a10.745 10.745 0 0 0 5.42 1.235 7.39 7.39 0 0 0 4.865-1.535A5.075 5.075 0 0 0 50 49.527c.012-.752-.13-1.499-.415-2.195a4.3 4.3 0 0 0-1.265-1.645 10.33 10.33 0 0 0-1.565-1.08c-.5-.255-1.1-.56-1.86-.9a13.71 13.71 0 0 1-2.455-1.365 1.88 1.88 0 0 1-.825-1.565 1.9 1.9 0 0 1 .76-1.55 3.33 3.33 0 0 1 2.125-.6 8.78 8.78 0 0 1 4.59 1.29v-3.5a10.82 10.82 0 0 0-4.705-.945c-2 0-3.612.5-4.835 1.5a4.86 4.86 0 0 0-1.82 3.96c-.012.718.12 1.43.39 2.095a4.13 4.13 0 0 0 1.145 1.565z"/></g><g><path fill="#fff" d="M56.25 54.952h3.64V38.597h4.91v-2.985H51.345v2.985h4.905z"/></g><g><path fill="#fff" d="M72.115 46.777c1.47-4.69 2.292-7.511 2.465-8.465l.115.575c.097.36.35 1.244.76 2.65.41 1.407.942 3.144 1.595 5.21l.255.86h-5.45zm-1.205 3.785h7.315l1.375 4.39h3.9l-6.54-19.34h-4.675l-6.54 19.34h3.785z"/></g><g><path fill="#fff" d="M86.66 44.592c.448.39.928.742 1.435 1.05.558.32 1.132.613 1.72.875.095.04.24.105.43.2.69.304 1.145.514 1.365.63.22.115.535.31.945.575.337.193.618.47.815.805a2 2 0 0 1 .205.915 2.11 2.11 0 0 1-.805 1.735 3.265 3.265 0 0 1-2.125.65 9.025 9.025 0 0 1-5.39-1.78v3.7a10.745 10.745 0 0 0 5.42 1.235 7.39 7.39 0 0 0 4.865-1.535 5.09 5.09 0 0 0 1.85-4.12c.012-.752-.13-1.499-.415-2.195a4.3 4.3 0 0 0-1.265-1.645 10.33 10.33 0 0 0-1.565-1.08c-.475-.255-1.1-.56-1.865-.9-.86-.37-1.682-.828-2.45-1.365a1.88 1.88 0 0 1-.83-1.565 1.9 1.9 0 0 1 .76-1.55 3.33 3.33 0 0 1 2.11-.6 8.78 8.78 0 0 1 4.59 1.29v-3.5a10.835 10.835 0 0 0-4.705-.945c-2 0-3.612.5-4.835 1.5a4.86 4.86 0 0 0-1.82 3.96c-.012.717.12 1.43.385 2.095a4.195 4.195 0 0 0 1.175 1.565z"/></g><g><path fill="#fff" d="M113.6 51.997h-9.64l9.265-13.715v-2.67H99.77v2.955h9.095l-9.24 13.63v2.755H113.6z"/></g><g><path fill="#fff" d="M132.21 55.182c2.14 0 3.807-.383 5-1.15v-3.615a7.5 7.5 0 0 1-4.645 1.435 6.18 6.18 0 0 1-4.605-1.78c-1.18-1.196-1.772-2.795-1.775-4.795a6.56 6.56 0 0 1 1.765-4.805 5.93 5.93 0 0 1 4.405-1.795 9.465 9.465 0 0 1 4.82 1.265v-3.525c-1.187-.703-2.842-1.056-4.965-1.06-2.907 0-5.283.924-7.13 2.77-1.847 1.847-2.768 4.23-2.765 7.15 0 3 .932 5.397 2.795 7.19a9.79 9.79 0 0 0 7.1 2.715z"/></g><g><path fill="#fff" d="M145.15 46.777c1.47-4.69 2.292-7.511 2.465-8.465l.115.575c.097.36.35 1.244.76 2.65.41 1.407.942 3.144 1.595 5.21l.255.86h-5.45zm-1.205 3.785h7.315l1.375 4.39h3.905L150 35.612h-4.68l-6.54 19.34h3.785z"/></g><g><path fill="#fff" d="M116.435 54.947V35.612h3.45v19.335z"/></g><g><path fill="#fff" d="M14.385 17.337v34.41h-3.74v-34.41zM31.22.777H7.19v13.105H0v48.935h25.315v-3.455H3.45V17.337h3.74v37.865h10.645v-41.32h-7.19V4.227H27.77v58.59h128.77v-3.455H31.22z"/></g></g></g></svg>