<svg id="Capa_1" enable-background="new 0 0 512 512" height="512" viewBox="0 0 512 512" width="512" xmlns="http://www.w3.org/2000/svg" fill="#fff"><g><path d="m502.537 96.856-79.28-31.514v-50.342c0-8.284-6.716-15-15-15s-15 6.716-15 15v38.418l-131.716-52.357c-3.399-1.351-7.461-1.437-11.082 0-64.839 25.776-185.984 73.941-240.994 95.799-7.699 3.059-11.46 11.779-8.401 19.479 3.061 7.704 11.787 11.459 19.479 8.4l8.201-3.26v375.521c0 8.284 6.716 15 15 15h424.513c8.284 0 15-6.716 15-15v-375.524l8.199 3.259c7.697 3.059 16.419-.699 19.48-8.398 3.059-7.698-.701-16.42-8.399-19.481zm-383.795 290.144h65.129c8.271 0 15 6.729 15 15s-6.729 15-15 15h-65.129zm65.13-30h-65.129v-35h274.515v95h-166.967c1.665-4.695 2.58-9.741 2.58-15 0-24.813-20.187-45-44.999-45zm209.386-65h-274.516v-30h274.515v30zm-209.386-60h-65.129v-30h65.129c8.271 0 15 6.729 15 15s-6.729 15-15 15zm-65.13 215h274.515v35h-274.515zm334.515 35h-30c0-9.292 0-269.728 0-280 0-8.284-6.716-15-15-15s-15 6.716-15 15v30h-166.966c1.665-4.695 2.58-9.741 2.58-15 0-24.813-20.187-45-44.999-45h-65.129v-20c0-8.284-6.716-15-15-15s-15 6.716-15 15v330h-30v-372.446l197.257-78.412c8.974 3.567 188.456 74.911 197.256 78.409v372.449z"/></g></svg>