<?xml version="1.0" encoding="iso-8859-1"?>
<!-- Generator: Adobe Illustrator 19.0.0, SVG Export Plug-In . SVG Version: 6.00 Build 0)  -->
<svg version="1.1" id="Capa_1" xmlns="http://www.w3.org/2000/svg" xmlns:xlink="http://www.w3.org/1999/xlink" x="0px" y="0px"
	 viewBox="0 0 512 512" style="enable-background:new 0 0 512 512;" xml:space="preserve" fill="#fff">
<g>
	<g>
		<path d="M496,180v-45c0-2.331-0.632-4.805-1.583-6.708L466,71.459V45c0-24.813-20.187-45-45-45H91C66.187,0,46,20.187,46,45
			v26.459l-28.417,56.833C16.637,130.182,16,132.665,16,135v45c0,22.159,12.084,41.537,30,51.928V424.58
			c-17.459,6.192-30,22.865-30,42.42v30c0,8.284,6.716,15,15,15h450c8.284,0,15-6.716,15-15v-30c0-19.555-12.541-36.228-30-42.42
			V231.928C483.916,221.537,496,202.159,496,180z M456.729,120h-54.018l-7.5-30h46.518L456.729,120z M391,270h-90
			c-8.284,0-15,6.716-15,15v137H76v-30h165c8.284,0,15-6.716,15-15v-92c0-8.284-6.716-15-15-15H76v-30
			c17.908,0,33.997-7.896,45-20.377C132.003,232.104,148.092,240,166,240s33.997-7.896,45-20.377
			C222.003,232.104,238.092,240,256,240s33.997-7.896,45-20.377C312.003,232.104,328.092,240,346,240
			c17.908,0,33.997-7.896,45-20.377C402.003,232.104,418.092,240,436,240v182h-30V285C406,276.716,399.284,270,391,270z M376,300
			v122h-60V300H376z M76,362v-62h150v62H76z M196,150v30c0,16.542-13.458,30-30,30s-30-13.458-30-30v-30H196z M140.212,120l7.5-30
			H196v30H140.212z M286,150v30c0,16.542-13.458,30-30,30s-30-13.458-30-30v-30H286z M226,120V90h60v30H226z M376,150v30
			c0,16.542-13.458,30-30,30s-30-13.458-30-30v-30H376z M316,120V90h48.288l7.5,30H316z M76,45c0-8.271,6.729-15,15-15h330
			c8.271,0,15,6.729,15,15v15H76V45z M70.271,90h46.518l-7.5,30H55.271L70.271,90z M46,150h60v30c0,16.542-13.458,30-30,30
			s-30-13.458-30-30V150z M466,482H46v-15c0-8.271,6.729-15,15-15h390c8.271,0,15,6.729,15,15V482z M436,210
			c-16.542,0-30-13.458-30-30v-30h60v30C466,196.542,452.542,210,436,210z"/>
	</g>
</g>
<g>
</g>
<g>
</g>
<g>
</g>
<g>
</g>
<g>
</g>
<g>
</g>
<g>
</g>
<g>
</g>
<g>
</g>
<g>
</g>
<g>
</g>
<g>
</g>
<g>
</g>
<g>
</g>
<g>
</g>
</svg>
