<?xml version="1.0" encoding="iso-8859-1"?>
<!-- Generator: Adobe Illustrator 19.0.0, SVG Export Plug-In . SVG Version: 6.00 Build 0)  -->
<svg version="1.1" id="Capa_1" xmlns="http://www.w3.org/2000/svg" xmlns:xlink="http://www.w3.org/1999/xlink" x="0px" y="0px"
	 viewBox="0 0 512 512" style="enable-background:new 0 0 512 512;" xml:space="preserve"  fill="#fff">
<g>
	<g>
		<path d="M503.686,121.573l-241-120c-4.211-2.097-9.16-2.097-13.371,0l-241,120C3.22,124.109,0,129.309,0,135v62
			c0,8.284,6.716,15,15,15h15v285c0,8.284,6.716,15,15,15c23.088,0,413.239,0,422,0c8.284,0,15-6.716,15-15V212h15
			c8.284,0,15-6.716,15-15v-62C512,129.309,508.78,124.109,503.686,121.573z M391,482H120v-30h271V482z M391,422H120v-30h271V422z
			 M391,362H120v-30h271V362z M391,302H120v-15c0-8.271,6.729-15,15-15h241c8.271,0,15,6.729,15,15V302z M452,482h-31
			c0-4.674,0-187.67,0-195c0-24.813-20.187-45-45-45H135c-24.813,0-45,20.187-45,45c0,1.921,0,193.093,0,195H60V212h392V482z
			 M482,182c-15.528,0-437.128,0-452,0v-37.712L256,31.757l226,112.531V182z"/>
	</g>
</g>
<g>
	<g>
		<path d="M256,60c-24.813,0-45,20.187-45,45s20.187,45,45,45s45-20.187,45-45S280.813,60,256,60z M256,120c-8.271,0-15-6.729-15-15
			s6.729-15,15-15s15,6.729,15,15S264.271,120,256,120z"/>
	</g>
</g>
<g>
</g>
<g>
</g>
<g>
</g>
<g>
</g>
<g>
</g>
<g>
</g>
<g>
</g>
<g>
</g>
<g>
</g>
<g>
</g>
<g>
</g>
<g>
</g>
<g>
</g>
<g>
</g>
<g>
</g>
</svg>
