<svg height="512pt" viewBox="0 0 512 512" width="512pt" xmlns="http://www.w3.org/2000/svg" fill="#fff"><path d="m90 166v-15h15c24.8125 0 45-20.1875 45-45s-20.1875-45-45-45h-30c-8.285156 0-15 6.714844-15 15v90c0 8.285156 6.714844 15 15 15s15-6.714844 15-15zm30-60c0 8.269531-6.730469 15-15 15h-15v-30h15c8.269531 0 15 6.730469 15 15zm0 0"/><path d="m478.289062 302.4375-20.222656-60.667969c-6.132812-18.40625-23.289062-30.769531-42.6875-30.769531h-166.757812c-19.398438 0-36.554688 12.363281-42.6875 30.769531l-20.222656 60.667969c-19.367188 5.019531-33.710938 22.648438-33.710938 43.5625v91c0 8.285156 6.714844 15 15 15h15v15c0 24.8125 20.1875 45 45 45s45-20.1875 45-45v-15h120v15c0 24.8125 20.1875 45 45 45s45-20.1875 45-45v-15h15c8.285156 0 15-6.714844 15-15v-91c0-20.914062-14.34375-38.542969-33.710938-43.5625zm-229.667968-61.4375h166.757812c6.464844 0 12.183594 4.121094 14.226563 10.257812l16.582031 49.742188h-32.972656l4.390625-4.394531c5.859375-5.859375 5.859375-15.355469 0-21.210938-5.855469-5.859375-15.351563-5.859375-21.210938 0l-25.609375 25.605469h-77.570312l4.390625-4.394531c5.859375-5.859375 5.859375-15.355469 0-21.210938-5.855469-5.859375-15.351563-5.859375-21.210938 0l-25.609375 25.605469h-32.972656l16.578125-49.742188c2.046875-6.136718 7.765625-10.257812 14.230469-10.257812zm-6.621094 226c0 8.269531-6.730469 15-15 15s-15-6.730469-15-15v-15h30zm210 0c0 8.269531-6.730469 15-15 15s-15-6.730469-15-15v-15h30zm30-45h-300v-76c0-8.257812 6.707031-14.976562 14.957031-14.996094h.046875c.03125 0 .0625-.003906.097656-.003906h269.898438c8.269531 0 15 6.730469 15 15zm0 0"/><path d="m135 482h-15v-45c0-8.285156-6.714844-15-15-15h-15v-181h45c41.355469 0 75-33.644531 75-75v-91c0-41.355469-33.644531-75-75-75h-90c-24.8125 0-45 20.1875-45 45v151c0 24.8125 20.1875 45 45 45h15v181h-15c-8.285156 0-15 6.714844-15 15v45h-15c-8.285156 0-15 6.714844-15 15s6.714844 15 15 15h120c8.285156 0 15-6.714844 15-15s-6.714844-15-15-15zm-105-286v-151c0-8.269531 6.730469-15 15-15h90c24.8125 0 45 20.1875 45 45v91c0 24.8125-20.1875 45-45 45h-90c-8.269531 0-15-6.730469-15-15zm30 256h30v30h-30zm0 0"/><path d="m257 361h-30c-8.285156 0-15 6.714844-15 15s6.714844 15 15 15h30c8.285156 0 15-6.714844 15-15s-6.714844-15-15-15zm0 0"/><path d="m437 361h-30c-8.285156 0-15 6.714844-15 15s6.714844 15 15 15h30c8.285156 0 15-6.714844 15-15s-6.714844-15-15-15zm0 0"/></svg>