<svg id="Capa_1" enable-background="new 0 0 512 512" height="512" viewBox="0 0 512 512" width="512" xmlns="http://www.w3.org/2000/svg" fill="#fff"><g><path d="m501.897.825c-6.049-2.093-12.753-.112-16.699 4.921l-80 102c-2.071 2.641-3.197 5.9-3.197 9.257v184.997h-32v-185c0-8.284-6.716-15-15-15h-35v-45c0-8.284-6.716-15-15-15h-45v-27c0-8.284-6.716-15-15-15s-15 6.716-15 15v27h-45c-8.284 0-15 6.716-15 15v45h-35c-8.284 0-15 6.716-15 15v25h-105.001c-8.284 0-15 6.716-15 15v340c0 8.284 6.716 15 15 15h482c8.284 0 15-6.716 15-15v-481.998c0-6.396-4.057-12.089-10.103-14.177zm-381.897 481.175h-30v-25c0-8.284-6.716-15-15-15s-15 6.716-15 15v25h-30v-310h90zm80-410h90v30h-90zm80 410h-70v-50h70zm60 0h-30v-65c0-8.284-6.716-15-15-15h-100c-8.284 0-15 6.716-15 15v65h-30v-350h190zm142 0h-112v-150h112zm0-180h-50v-179.817l50-63.75z"/><path d="m195 372h100c8.284 0 15-6.716 15-15s-6.716-15-15-15h-100c-8.284 0-15 6.716-15 15s6.716 15 15 15z"/><path d="m195 312h100c8.284 0 15-6.716 15-15s-6.716-15-15-15h-100c-8.284 0-15 6.716-15 15s6.716 15 15 15z"/><path d="m195 252h100c8.284 0 15-6.716 15-15s-6.716-15-15-15h-100c-8.284 0-15 6.716-15 15s6.716 15 15 15z"/><path d="m195 192h100c8.284 0 15-6.716 15-15s-6.716-15-15-15h-100c-8.284 0-15 6.716-15 15s6.716 15 15 15z"/><path d="m417 392h20c8.284 0 15-6.716 15-15s-6.716-15-15-15h-20c-8.284 0-15 6.716-15 15s6.716 15 15 15z"/><path d="m417 452h20c8.284 0 15-6.716 15-15s-6.716-15-15-15h-20c-8.284 0-15 6.716-15 15s6.716 15 15 15z"/><path d="m75 412c8.284 0 15-6.716 15-15v-20c0-8.284-6.716-15-15-15s-15 6.716-15 15v20c0 8.284 6.716 15 15 15z"/><path d="m75 332c8.284 0 15-6.716 15-15v-20c0-8.284-6.716-15-15-15s-15 6.716-15 15v20c0 8.284 6.716 15 15 15z"/><path d="m75 252c8.284 0 15-6.716 15-15v-20c0-8.284-6.716-15-15-15s-15 6.716-15 15v20c0 8.284 6.716 15 15 15z"/></g></svg>