<svg xmlns="http://www.w3.org/2000/svg" width="346" height="84" viewBox="0 0 346 84"><g><g><g><path fill="#fff" d="M13.675 27.776v10.972H34.29v11.445H13.675v16.929H.714V16.174h39.141v11.602z"/></g><g><path fill="#fff" d="M161.333 57.676h-.077c-4.86 6.585-12.698 10.818-21.555 10.818-14.815 0-26.884-11.993-26.884-26.807 0-14.813 12.07-26.884 26.884-26.884 8.857 0 16.066 3.683 21.004 10.346l-9.326 5.956c-3.135-2.9-6.584-4.545-11.678-4.545-8.309 0-15.128 6.82-15.128 15.127 0 8.308 6.82 15.05 15.128 15.05 4.31 0 8.151-1.803 10.895-4.626v-5.329h-12.772v-9.797h23.509z"/></g><g><g><path fill="orange" d="M84.687 67.208H68.112V16.214h16.575zM51.992.158v83.11h48.688V.158z"/></g></g><g><path fill="#fff" d="M224.757 16.174v25.023c0 16.393-11.453 27.297-25.885 27.297-14.511 0-25.964-10.904-25.964-27.297V16.174h12.972v25.023c0 8.001 5.107 13.995 12.953 13.995 7.766 0 12.956-5.994 12.956-13.995V16.174z"/></g><g><path fill="#fff" d="M249.86 42.658V26.412h9.836c5.609 0 8.887 2.695 8.887 8.014 0 5.39-3.278 8.232-8.887 8.232zm17.775 24.55h14.717L271.643 50.38c5.973-2.987 9.251-8.596 9.251-16.392 0-11.364-7.722-17.774-21.198-17.774h-22.803v50.994h12.968V52.856h10.198z"/></g><g><path fill="#fff" d="M324.015 47.976H309.3l7.43-17.92zm3.788 10.198l3.642 9.034h13.841l-21.49-50.994h-13.33l-22.002 50.994h13.331l3.716-9.034z"/></g></g></g></svg>