<svg xmlns="http://www.w3.org/2000/svg" width="251" height="66" viewBox="0 0 251 66"><g><g><g><path fill="#1d1d1b" d="M30.418 48.573V18.922h-9.926v4.832h4.832v24.819z"/></g><g><path fill="#1d1d1b" d="M54.751 48.573v-8.684h3.174v-4.396H54.75V24.901h-5.094v10.592h-8.593l.008-16.571h-5.123v20.967h13.708v8.684z"/></g><g><path fill="#1d1d1b" d="M72.67 21.413h3.764v2.42c-1.003.79-1.933 1.112-3.196 1.112-3.644 0-4.942-2.477-4.942-4.794 0-3.12 2.032-5.3 4.942-5.3 1.309 0 2.744.564 3.655 1.437l.091.087 1.9-1.947-.09-.088a7.871 7.871 0 0 0-5.556-2.287c-3.937 0-7.91 2.503-7.91 8.098 0 3.69 2.079 7.635 7.91 7.635 2.463 0 4.358-.856 5.963-2.694l.031-.036v-6.378H72.67z"/></g><g><path fill="#1d1d1b" d="M90.7 19.863h-3.866v-4.457H90.7c1.656 0 2.397 1.12 2.397 2.23 0 1.027-.627 2.227-2.397 2.227zm5.427-2.291c0-3.417-2.812-4.99-5.427-5.006-1.167 0-2.275-.006-3.384-.01-1.108-.006-2.218-.012-3.385-.012h-.127v14.998h3.03V22.62h2.252l4.29 4.922h3.653v-.508l-4.505-4.76c2.294-.551 3.603-2.254 3.603-4.702z"/></g><g><path fill="#1d1d1b" d="M110.37 21.147c0 2.5-1.265 3.932-3.47 3.932-2.304 0-3.68-1.47-3.68-3.932v-8.56h-3.009v8.56c0 4.076 2.617 6.71 6.668 6.71 4.009 0 6.5-2.57 6.5-6.71v-8.56h-3.01z"/></g><g><path fill="#1d1d1b" d="M128.01 21.472l-7.49-8.906h-2.436v14.976h3.03V17.84l7.89 9.7h2.037V12.545h-3.03z"/></g><g><path fill="#1d1d1b" d="M149.304 22.286L146 12.652l-.03-.086h-1.867l-3.238 9.72-3.144-9.72h-3.17l5.094 14.89.03.086h2.374l1.698-4.675 1.311-4.297 1.33 4.261 1.736 4.71h2.375l4.968-14.808.056-.167h-3.17z"/></g><g><path fill="#1d1d1b" d="M177.47 12.566h-3.03v14.976h9.994v-2.82h-6.965z"/></g><g><path fill="#1d1d1b" d="M197.46 23.395c-.79.81-1.887 1.222-3.26 1.222h-2.9v-9.168h2.9c2.107 0 4.39 1.171 4.48 4.46.036 1.402-.397 2.64-1.22 3.486zm-3.26-10.83h-5.91v14.977h5.91c2.227 0 4.104-.713 5.43-2.062 1.345-1.368 2.095-3.392 2.058-5.555-.058-3.395-2.055-7.36-7.488-7.36z"/></g><g><path fill="#1d1d1b" d="M205.294 15.427h7.158l-7.324 10.316-.023.033v1.766h11.757v-2.883h-7.367l7.344-10.407.023-.033v-1.653h-11.568z"/></g><g><path fill="#1d1d1b" d="M233.716 13.047l.008-.481h-3.633l-5.413 5.698v-5.698h-3.03v14.976h3.03v-5.969l5.983 5.969h3.608v-.503l-7.053-7.218z"/></g><g><path fill="#1d1d1b" d="M241.427 21.924l2.248-5.79 2.247 5.79zm3.751-9.358h-3.02l-5.908 14.802-.07.174h3.033l1.123-2.777h6.677l1.104 2.777h3.037z"/></g><g><path fill="#1d1d1b" d="M161.217 21.924l2.247-5.79 2.248 5.79zm.73-9.358l-5.907 14.802-.07.174h3.033l1.123-2.777h6.677l1.104 2.777h3.037l-5.976-14.976z"/></g><g><path fill="#1d1d1b" d="M66.322 61.18H5.36l9.07-56.526h56.46V.086H10.536L0 65.749h70.89V35.494h-4.568z"/></g></g></g></svg>