<svg xmlns="http://www.w3.org/2000/svg" width="81" height="75" viewBox="0 0 81 75"><g><g><g><path fill="orange" d="M69.028 30.638V24.51h6.703v6.128zM54.376 50.479H37.853v-8.316c0-1.029-.76-1.884-1.769-2.12-.415-.097.203-.068-9.455-.068V24.51h27.747zM24.948 70.466l8.228-7.847v7.847zm-11.29-26.114l-8.384 7.7v-7.7zm-8.384 23.02v-9.13l14.998-13.89h9.598zM33.176 56.43L18.335 70.466H8.737l24.44-23.02zm21.2-51.907v6.274h-6.547V4.523zm21.355 6.274h-6.703V4.523h6.703zm-6.703 4.376h6.703v4.96h-6.703zm-9.976-4.376V4.523h5.3v6.274zm0 9.337v-4.96h5.3v4.96zm0 4.376h5.3v6.128h-5.3zM47.83 15.173h6.547v4.96h-6.547zM78.069.146H45.491c-1.292 0-2.338.98-2.338 2.189v17.799H24.29c-1.29 0-2.338.98-2.338 2.188v17.653H2.936c-1.291 0-2.338.98-2.338 2.188 0 32.798-.034 30.629.074 31.029.173.644.667 1.212 1.37 1.484.62.24-1.266.167 33.472.167 1.292 0 2.339-.98 2.339-2.188v-17.8h18.86c1.292 0 2.339-.979 2.339-2.188V35.015h19.017c1.291 0 2.338-.98 2.338-2.189V2.335c0-1.209-1.046-2.189-2.338-2.189z"/></g><g><path fill="orange" d="M36.56 31.232c-.286-1.284-1.65-2.035-2.972-1.666-1.342.409-1.902 1.647-1.557 2.73.436 1.253 1.757 1.78 2.916 1.457 1.228-.375 1.827-1.455 1.613-2.521z"/></g><g><path fill="orange" d="M49.03 31.232c-.285-1.284-1.65-2.035-2.972-1.666-1.342.409-1.901 1.647-1.557 2.73.44 1.262 1.779 1.78 2.915 1.457 1.207-.36 1.832-1.437 1.615-2.521z"/></g><g><path fill="orange" d="M49.03 42.903c-.287-1.29-1.655-2.033-2.972-1.666-1.364.416-1.896 1.666-1.557 2.73.434 1.245 1.749 1.783 2.916 1.457 1.227-.374 1.827-1.454 1.614-2.521z"/></g></g></g></svg>